<?xml version="1.0" encoding="utf-8"?>
<!-- Generator: Adobe Illustrator 23.0.1, SVG Export Plug-In . SVG Version: 6.00 Build 0)  -->
<svg version="1.1" id="Layer_1" xmlns="http://www.w3.org/2000/svg" xmlns:xlink="http://www.w3.org/1999/xlink" x="0px" y="0px"
	 viewBox="0 0 154.6 103.4" style="enable-background:new 0 0 154.6 103.4;" xml:space="preserve">
<g>
	<path d="M0,37.6l3.4-6.5c3.3,2.4,7.7,3.8,12,3.8c4.6,0,7.5-1.6,7.5-4.2c0-5.8-18-2.7-18-14.2C4.9,9,11.4,4.2,21.5,4.2
		c4.9,0,9.4,1.1,12.5,3.1l-3.2,6.4c-2.7-1.9-6.3-2.8-9.8-2.8c-4.9,0-7.7,1.9-7.7,4.5c-0.1,6,18,2.8,18,14c0,7.5-6.6,12.3-16.7,12.3
		C8.6,41.6,3.1,39.9,0,37.6z"/>
	<path d="M65.6,25.2c0,9.4-6.8,16.2-15.4,16.2c-4,0-7.2-1.3-9-4.1l-2.7,13.8h-8.1l7.6-37.9h7.7L45,15.9c2.2-2,5.1-3.2,8.5-3.2
		C60,12.8,65.6,17.3,65.6,25.2z M57.4,25.6c0-3.8-2.3-6.2-6.4-6.2c-4.7,0-8.1,3.7-8.1,9.2c0,3.8,2.3,6.2,6.3,6.2
		C54,34.8,57.4,31,57.4,25.6z"/>
	<path d="M89.4,12.8L88,20.2c-0.7-0.1-1.2-0.1-1.9-0.1c-4.8,0-7.8,2.2-8.9,7.5L74.6,41h-8.1l5.5-27.8h7.7L79,16.5
		C81.5,13.8,84.9,12.8,89.4,12.8z"/>
	<path d="M93.1,13.2h8L95.6,41h-8L93.1,13.2z M93.8,5.1c0-2.7,2.1-4.8,5.3-4.8c2.8,0,4.8,1.8,4.8,4c0,3-2.2,5-5.4,5
		C95.7,9.3,93.8,7.4,93.8,5.1z"/>
	<path d="M131.9,22.2c0,1-0.1,2.2-0.4,3.4L128.4,41h-8.1l3-14.9c0.2-0.7,0.2-1.3,0.2-1.9c0-2.8-1.6-4.5-4.8-4.5
		c-4.1,0-6.9,2.3-7.9,7.1L108.1,41H100l5.5-27.8h7.7l-0.6,3c2.5-2.3,5.7-3.4,9.2-3.4C127.8,12.8,131.9,16.1,131.9,22.2z"/>
	<path d="M144.2,31.2c-0.1,0.4-0.1,0.8-0.1,1.1c0,1.7,0.9,2.7,3,2.7c1.1,0,2.2-0.4,3.3-1l1.2,5.7c-2,1.2-4.5,1.7-6.9,1.7
		c-5.2,0-8.7-2.9-8.7-7.8c0-0.8,0.1-1.6,0.3-2.4l2.2-11.2H134l1.2-6.2h4.3l1.3-6.8h8.1l-1.3,6.8h6.9l-1.2,6.2h-6.9L144.2,31.2z"/>
	<path d="M1.3,98.6l1.4-2c2.2,2.6,7,4.5,11.6,4.5c6.8,0,11.5-2.8,11.5-8c0-8.9-19.2-4.5-19.2-15.7c0-6.8,6-10.7,14-10.7
		c4.1,0,8.2,1.1,10.9,3.2L30.4,72c-2.6-2-6.1-3-9.8-3C13.9,69,9.3,72,9.3,77.1c-0.1,9.1,19.2,4.8,19.2,15.6
		c0,6.9-6.2,10.7-14.3,10.7C8.9,103.4,3.6,101.3,1.3,98.6z"/>
	<path d="M35.6,90.2c-0.1,0.6-0.1,1.1-0.1,1.7c0,5.8,3.4,9.1,10,9.1c3.8,0,7.1-1.3,9.3-3.6l1.2,1.8c-2.4,2.6-6.4,4.1-10.7,4.1
		C37.6,103.3,33,99.1,33,92c0-9.2,6.3-16.1,14.8-16.1c7,0,11.5,4.2,11.5,11.3c0,1-0.2,2.1-0.3,3H35.6z M35.9,88.2h20.8
		c0.1-0.5,0.1-0.9,0.1-1.3c0-5.6-3.7-8.7-9.1-8.7C41.7,78.1,37.2,82.2,35.9,88.2z"/>
	<path d="M62.6,92.1c0-9.3,6.5-16.2,15.5-16.2c7.3,0,12,4.3,12,11.2c0,9.3-6.5,16.2-15.5,16.2C67.3,103.3,62.6,98.9,62.6,92.1z
		 M87.5,87.3c0-5.7-3.5-9.1-9.6-9.1c-7.3,0-12.7,5.8-12.7,13.7c0,5.7,3.5,9.1,9.6,9.1C82.1,101,87.5,95.3,87.5,87.3z"/>
	<path d="M120.7,76.1l-5.4,27h-2.5l1-5.1c-2.6,3.7-6.5,5.3-11.1,5.3c-6.1,0-9.5-3.3-9.5-8.6c0-0.9,0.1-1.9,0.3-3l3.1-15.6h2.6
		l-3.1,15.6c-0.2,0.9-0.3,1.8-0.3,2.6c0,4.2,2.5,6.7,7.5,6.7c6.1,0,10.4-3.5,11.7-10.2l3-14.7H120.7z"/>
	<path d="M130.2,64.7h2.6l-7.7,38.4h-2.6L130.2,64.7z"/>
</g>
</svg>
