<?xml version="1.0" encoding="utf-8"?>
<!-- Generator: Adobe Illustrator 23.0.1, SVG Export Plug-In . SVG Version: 6.00 Build 0)  -->
<svg version="1.1" id="Layer_1" xmlns="http://www.w3.org/2000/svg" xmlns:xlink="http://www.w3.org/1999/xlink" x="0px" y="0px"
	 viewBox="0 0 289.1 50.8" style="enable-background:new 0 0 289.1 50.8;" xml:space="preserve">
<style type="text/css">
	.st0{fill:#FFFFFF;}
</style>
<g>
	<path class="st0" d="M0,37.3l3.4-6.5c3.3,2.4,7.7,3.8,12,3.8c4.6,0,7.5-1.6,7.5-4.2c0-5.8-18-2.7-18-14.2c0-7.5,6.5-12.3,16.6-12.3
		C26.3,3.9,30.8,5,34,7l-3.2,6.4c-2.7-1.9-6.3-2.8-9.8-2.8c-4.9,0-7.7,1.9-7.7,4.5c-0.1,6,18,2.8,18,14c0,7.5-6.6,12.3-16.7,12.3
		C8.6,41.4,3.1,39.6,0,37.3z"/>
	<path class="st0" d="M65.6,24.9c0,9.4-6.8,16.2-15.4,16.2c-4,0-7.2-1.3-9-4.1l-2.7,13.8h-8.1l7.6-37.9h7.7L45,15.6
		c2.2-2,5.1-3.2,8.5-3.2C60,12.5,65.6,17,65.6,24.9z M57.4,25.3c0-3.8-2.3-6.2-6.4-6.2c-4.7,0-8.1,3.7-8.1,9.2
		c0,3.8,2.3,6.2,6.3,6.2C54,34.5,57.4,30.7,57.4,25.3z"/>
	<path class="st0" d="M89.4,12.5L88,19.9c-0.7-0.1-1.2-0.1-1.9-0.1c-4.8,0-7.8,2.2-8.9,7.5l-2.7,13.5h-8.1l5.5-27.8h7.7L79,16.2
		C81.5,13.5,84.9,12.5,89.4,12.5z"/>
	<path class="st0" d="M93.1,12.9h8l-5.5,27.8h-8L93.1,12.9z M93.8,4.8c0-2.7,2.1-4.8,5.3-4.8c2.8,0,4.8,1.8,4.8,4c0,3-2.2,5-5.4,5
		C95.7,9,93.8,7.1,93.8,4.8z"/>
	<path class="st0" d="M131.9,21.9c0,1-0.1,2.2-0.4,3.4l-3.1,15.4h-8.1l3-14.9c0.2-0.7,0.2-1.3,0.2-1.9c0-2.8-1.6-4.5-4.8-4.5
		c-4.1,0-6.9,2.3-7.9,7.1l-2.8,14.1H100l5.5-27.8h7.7l-0.6,3c2.5-2.3,5.7-3.4,9.2-3.4C127.8,12.5,131.9,15.8,131.9,21.9z"/>
	<path class="st0" d="M144.2,30.9c-0.1,0.4-0.1,0.8-0.1,1.1c0,1.7,0.9,2.7,3,2.7c1.1,0,2.2-0.4,3.3-1l1.2,5.7
		c-2,1.2-4.5,1.7-6.9,1.7c-5.2,0-8.7-2.9-8.7-7.8c0-0.8,0.1-1.6,0.3-2.4l2.2-11.2H134l1.2-6.2h4.3l1.3-6.8h8.1l-1.3,6.8h6.9
		l-1.2,6.2h-6.9L144.2,30.9z"/>
	<path class="st0" d="M157.7,36.2l1.4-2c2.2,2.6,7,4.5,11.6,4.5c6.8,0,11.5-2.8,11.5-8c0-8.9-19.2-4.5-19.2-15.7
		c0-6.8,6-10.7,14-10.7c4.1,0,8.2,1.1,10.9,3.2l-1.2,2.2c-2.6-2-6.1-3-9.8-3c-6.7,0-11.3,3.1-11.3,8.1c-0.1,9.1,19.2,4.8,19.2,15.6
		c0,6.9-6.2,10.7-14.3,10.7C165.2,41,159.9,38.9,157.7,36.2z"/>
	<path class="st0" d="M192,27.8c-0.1,0.6-0.1,1.1-0.1,1.7c0,5.8,3.4,9.1,10,9.1c3.8,0,7.1-1.3,9.3-3.6l1.2,1.8
		c-2.4,2.6-6.4,4.1-10.7,4.1c-7.7,0-12.3-4.2-12.3-11.3c0-9.2,6.3-16.1,14.8-16.1c7,0,11.5,4.2,11.5,11.3c0,1-0.2,2.1-0.3,3H192z
		 M192.3,25.8h20.8c0.1-0.5,0.1-0.9,0.1-1.3c0-5.6-3.7-8.7-9.1-8.7C198.1,15.7,193.6,19.8,192.3,25.8z"/>
	<path class="st0" d="M219,29.7c0-9.3,6.5-16.2,15.5-16.2c7.3,0,12,4.3,12,11.2c0,9.3-6.5,16.2-15.5,16.2
		C223.7,40.9,219,36.5,219,29.7z M243.8,24.9c0-5.7-3.5-9.1-9.6-9.1c-7.3,0-12.7,5.8-12.7,13.7c0,5.7,3.5,9.1,9.6,9.1
		C238.5,38.6,243.8,32.9,243.8,24.9z"/>
	<path class="st0" d="M277,13.7l-5.4,27h-2.5l1-5.1c-2.6,3.7-6.5,5.3-11.1,5.3c-6.1,0-9.5-3.3-9.5-8.6c0-0.9,0.1-1.9,0.3-3l3.1-15.6
		h2.6l-3.1,15.6c-0.2,0.9-0.3,1.8-0.3,2.6c0,4.2,2.5,6.7,7.5,6.7c6.1,0,10.4-3.5,11.7-10.2l3-14.7H277z"/>
	<path class="st0" d="M286.6,2.3h2.6l-7.7,38.4h-2.6L286.6,2.3z"/>
</g>
</svg>
